{
  "accessors": [
    {
      "bufferView": 2,
      "componentType": 5126,
      "count": 65532,
      "max": [
        16.30829620361328,
        17.239948272705078,
        16.048372268676758
      ],
      "min": [
        -12.37944507598877,
        -0.4015681743621826,
        1.1135990619659424
      ],
      "type": "VEC3"
    },
    {
      "bufferView": 2,
      "byteOffset": 786384,
      "componentType": 5126,
      "count": 65532,
      "max": [
        0.9999936819076538,
        0.9999932050704956,
        0.9997434616088867
      ],
      "min": [
        -0.9999991655349731,
        -0.9999159574508667,
        -0.999981164932251
      ],
      "type": "VEC3"
    },
    {
      "bufferView": 1,
      "componentType": 5126,
      "count": 65532,
      "max": [
        0.9973639845848083,
        0.9996730089187622
      ],
      "min": [
        0.0,
        0.0
      ],
      "type": "VEC2"
    },
    {
      "bufferView": 0,
      "componentType": 5125,
      "count": 317484,
      "type": "SCALAR"
    },
    {
      "bufferView": 2,
      "byteOffset": 1572768,
      "componentType": 5126,
      "count": 49428,
      "max": [
        15.913192749023438,
        17.1294002532959,
        16.445737838745117
      ],
      "min": [
        -8.274375915527344,
        -0.40100526809692383,
        4.669772148132324
      ],
      "type": "VEC3"
    },
    {
      "bufferView": 2,
      "byteOffset": 2165904,
      "componentType": 5126,
      "count": 49428,
      "max": [
        0.9999936819076538,
        0.9999932050704956,
        0.9986263513565063
      ],
      "min": [
        -0.9999991655349731,
        -0.999925971031189,
        -0.9999788999557495
      ],
      "type": "VEC3"
    },
    {
      "bufferView": 1,
      "byteOffset": 524256,
      "componentType": 5126,
      "count": 49428,
      "max": [
        0.9969931840896606,
        1.0
      ],
      "min": [
        0.00445100013166666,
        0.004898999817669392
      ],
      "type": "VEC2"
    },
    {
      "bufferView": 0,
      "byteOffset": 1269936,
      "componentType": 5125,
      "count": 209505,
      "type": "SCALAR"
    }
  ],
  "asset": {
    "extras": {
      "author": "Alan Zimmerman (https://sketchfab.com/nenjo)",
      "license": "CC-BY-4.0 (http://creativecommons.org/licenses/by/4.0/)",
      "source": "https://sketchfab.com/3d-models/gates-of-hell-d4328120c44d470ca86c678220e3921b",
      "title": "Gates of Hell"
    },
    "generator": "Sketchfab-12.67.0",
    "version": "2.0"
  },
  "bufferViews": [
    {
      "buffer": 0,
      "byteLength": 2107956,
      "name": "floatBufferViews",
      "target": 34963
    },
    {
      "buffer": 0,
      "byteLength": 919680,
      "byteOffset": 2107956,
      "byteStride": 8,
      "name": "floatBufferViews",
      "target": 34962
    },
    {
      "buffer": 0,
      "byteLength": 2759040,
      "byteOffset": 3027636,
      "byteStride": 12,
      "name": "floatBufferViews",
      "target": 34962
    }
  ],
  "buffers": [
    {
      "byteLength": 5786676,
      "uri": "scene.bin"
    }
  ],
  "images": [
    {
      "uri": "textures/Gates-of-Hell_baseColor.jpeg"
    }
  ],
  "materials": [
    {
      "doubleSided": true,
      "name": "Gates-of-Hell",
      "pbrMetallicRoughness": {
        "baseColorFactor": [
          0.7273246951219513,
          0.7273246951219513,
          0.7273246951219513,
          1.0
        ],
        "baseColorTexture": {
          "index": 0
        },
        "metallicFactor": 0.0,
        "roughnessFactor": 0.2
      }
    }
  ],
  "meshes": [
    {
      "name": "Gates-of-Hell_Gates-of-Hell_0",
      "primitives": [
        {
          "attributes": {
            "NORMAL": 1,
            "POSITION": 0,
            "TEXCOORD_0": 2
          },
          "indices": 3,
          "material": 0,
          "mode": 4
        }
      ]
    },
    {
      "name": "Gates-of-Hell_Gates-of-Hell_0",
      "primitives": [
        {
          "attributes": {
            "NORMAL": 5,
            "POSITION": 4,
            "TEXCOORD_0": 6
          },
          "indices": 7,
          "material": 0,
          "mode": 4
        }
      ]
    }
  ],
  "nodes": [
    {
      "children": [
        1
      ],
      "matrix": [
        1.0,
        0.0,
        0.0,
        0.0,
        0.0,
        -0.36534366011619546,
        -0.9308727383613588,
        0.0,
        0.0,
        0.9308727383613588,
        -0.36534366011619546,
        0.0,
        0.0,
        -262.55978393554693,
        368.28103637695307,
        1.0
      ],
      "name": "Sketchfab_model"
    },
    {
      "children": [
        2
      ],
      "matrix": [
        1.0,
        0.0,
        0.0,
        0.0,
        0.0,
        0.0,
        1.0,
        0.0,
        0.0,
        -1.0,
        0.0,
        0.0,
        0.0,
        0.0,
        0.0,
        1.0
      ],
      "name": "08afe61b69064497b422716f848f5fbd.fbx"
    },
    {
      "children": [
        3
      ],
      "name": "Object_2"
    },
    {
      "children": [
        4,
        7,
        10,
        13
      ],
      "name": "RootNode"
    },
    {
      "children": [
        5
      ],
      "name": "Sun.001",
      "rotation": [
        -0.16796933114528656,
        0.431560218334198,
        -0.27668166160583496,
        0.8420150279998779
      ],
      "scale": [
        100.0,
        100.0,
        100.0
      ],
      "translation": [
        284.8820495605469,
        806.6775512695313,
        1170.6875
      ]
    },
    {
      "children": [
        6
      ],
      "matrix": [
        1.0,
        0.0,
        0.0,
        0.0,
        0.0,
        2.220446049250313e-16,
        1.0,
        0.0,
        0.0,
        -1.0,
        2.220446049250313e-16,
        0.0,
        0.0,
        0.0,
        0.0,
        1.0
      ],
      "name": "Object_5"
    },
    {
      "name": "Object_6"
    },
    {
      "children": [
        8
      ],
      "name": "Sun",
      "rotation": [
        -0.1473391056060791,
        -0.5427707433700562,
        0.23124682903289795,
        0.793861448764801
      ],
      "scale": [
        99.99999237060547,
        100.0,
        100.0
      ],
      "translation": [
        -1212.59130859375,
        -835.9383544921875,
        -928.8411254882813
      ]
    },
    {
      "children": [
        9
      ],
      "matrix": [
        1.0,
        0.0,
        0.0,
        0.0,
        0.0,
        2.220446049250313e-16,
        1.0,
        0.0,
        0.0,
        -1.0,
        2.220446049250313e-16,
        0.0,
        0.0,
        0.0,
        0.0,
        1.0
      ],
      "name": "Object_8"
    },
    {
      "name": "Object_9"
    },
    {
      "children": [
        11,
        12
      ],
      "name": "Gates-of-Hell",
      "rotation": [
        8.146033536604591e-08,
        0.0,
        0.0,
        1.0
      ],
      "scale": [
        100.0,
        100.0,
        100.0
      ]
    },
    {
      "mesh": 0,
      "name": "Gates-of-Hell_Gates-of-Hell_0"
    },
    {
      "mesh": 1,
      "name": "Gates-of-Hell_Gates-of-Hell_0"
    },
    {
      "children": [
        14
      ],
      "name": "Camera",
      "rotation": [
        -0.21061137318611145,
        0.9052400588989258,
        -0.08928162604570389,
        0.358067125082016
      ],
      "scale": [
        100.0,
        100.0,
        100.0
      ],
      "translation": [
        748.1131591796875,
        534.3665161132813,
        650.7639770507813
      ]
    },
    {
      "name": "Object_14"
    }
  ],
  "samplers": [
    {
      "magFilter": 9729,
      "minFilter": 9987,
      "wrapS": 10497,
      "wrapT": 10497
    }
  ],
  "scene": 0,
  "scenes": [
    {
      "name": "Sketchfab_Scene",
      "nodes": [
        0
      ]
    }
  ],
  "textures": [
    {
      "sampler": 0,
      "source": 0
    }
  ]
}
